<?xml version="1.0" standalone="no"?>
<!DOCTYPE svg PUBLIC "-//W3C//DTD SVG 20010904//EN"
 "http://www.w3.org/TR/2001/REC-SVG-20010904/DTD/svg10.dtd">
<svg version="1.0" xmlns="http://www.w3.org/2000/svg"
 width="1242.000000pt" height="490.000000pt" viewBox="0 0 1242.000000 490.000000"
 preserveAspectRatio="xMidYMid meet">

<g transform="translate(0.000000,490.000000) scale(0.100000,-0.100000)"
fill="#000000" stroke="none">
<path d="M2420 4890 c0 -5 5 -10 11 -10 5 0 7 5 4 10 -3 6 -8 10 -11 10 -2 0
-4 -4 -4 -10z"/>
<path d="M11110 4890 c0 -5 5 -10 10 -10 6 0 10 5 10 10 0 6 -4 10 -10 10 -5
0 -10 -4 -10 -10z"/>
<path d="M0 4760 c0 -5 5 -10 10 -10 6 0 10 5 10 10 0 6 -4 10 -10 10 -5 0
-10 -4 -10 -10z"/>
<path d="M3536 4684 c-11 -29 6 -42 33 -25 12 8 12 12 2 25 -17 20 -27 20 -35
0z"/>
<path d="M4490 4649 c0 -5 5 -7 10 -4 6 3 10 8 10 11 0 2 -4 4 -10 4 -5 0 -10
-5 -10 -11z"/>
<path d="M9780 4620 c0 -15 5 -20 18 -18 9 2 17 10 17 18 0 8 -8 16 -17 18
-13 2 -18 -3 -18 -18z"/>
<path d="M12400 4519 c0 -5 5 -7 10 -4 6 3 10 8 10 11 0 2 -4 4 -10 4 -5 0
-10 -5 -10 -11z"/>
<path d="M7775 4040 c-3 -5 -1 -10 4 -10 6 0 11 5 11 10 0 6 -2 10 -4 10 -3 0
-8 -4 -11 -10z"/>
<path d="M4620 3969 c0 -5 5 -7 10 -4 6 3 10 8 10 11 0 2 -4 4 -10 4 -5 0 -10
-5 -10 -11z"/>
<path d="M885 3930 c-4 -7 -3 -16 3 -22 14 -14 45 -2 40 15 -6 16 -34 21 -43
7z"/>
<path d="M7785 3730 c-3 -5 -1 -10 4 -10 6 0 11 5 11 10 0 6 -2 10 -4 10 -3 0
-8 -4 -11 -10z"/>
<path d="M1835 3573 c-16 -8 -41 -26 -55 -39 -23 -21 -30 -22 -62 -14 -52 15
-145 6 -171 -16 -28 -23 -47 -46 -47 -55 0 -12 38 -17 48 -7 15 15 121 -12
137 -35 21 -30 6 -42 -21 -16 -20 19 -27 21 -49 11 -18 -9 -31 -9 -49 -1 -28
13 -63 -8 -91 -54 -16 -27 -18 -27 -30 -10 -13 17 -14 17 -20 1 -4 -9 -4 -21
-1 -26 8 -14 -16 -85 -40 -114 -27 -33 -39 -95 -25 -131 13 -32 31 -36 31 -5
l0 22 20 -22 c11 -12 20 -26 20 -32 0 -5 7 -10 16 -10 9 0 29 -10 46 -21 25
-18 34 -20 54 -10 14 6 45 11 69 11 31 0 47 5 54 18 6 9 11 12 11 6 0 -7 8
-14 18 -18 9 -3 23 -9 31 -12 11 -5 13 0 8 25 -9 45 10 61 71 61 27 0 52 3 56
7 3 4 28 8 54 9 55 2 85 -19 103 -75 19 -56 50 -91 105 -117 28 -13 55 -24 61
-24 6 0 13 28 17 63 3 34 13 82 20 107 13 43 14 44 23 21 l10 -25 18 27 c13
20 16 40 13 71 -7 56 -74 202 -105 226 -13 10 -23 27 -23 38 0 26 -18 38 -33
23 -18 -18 -46 -13 -93 20 -31 21 -52 29 -68 25 -13 -3 -26 -3 -30 1 -4 4 -17
8 -29 8 -82 4 -87 5 -87 21 0 13 7 15 30 11 16 -4 32 -2 35 3 3 6 -6 10 -22
11 -25 1 -23 3 20 23 26 12 45 25 41 29 -12 12 -57 7 -89 -10z m9 -169 c8 -21
8 -24 -3 -24 -5 0 -11 9 -14 20 -6 24 8 27 17 4z m-169 -65 c10 -16 0 -21 -29
-13 -14 3 -23 10 -20 15 7 12 41 11 49 -2z m135 -28 c0 -22 -16 -36 -24 -22
-8 12 3 41 15 41 5 0 9 -9 9 -19z m-194 -17 c-3 -9 -6 -18 -6 -20 0 -3 -4 -3
-10 1 -11 7 -2 35 12 35 6 0 7 -7 4 -16z m371 -42 c18 -24 16 -32 -7 -32 -13
0 -20 7 -20 20 0 13 -7 20 -20 20 -11 0 -20 5 -20 11 0 16 51 1 67 -19z m-362
-23 c11 -17 0 -20 -21 -4 -17 13 -17 14 -2 15 9 0 20 -5 23 -11z m205 -19 c0
-5 -11 -10 -25 -10 -14 0 -25 5 -25 10 0 6 11 10 25 10 14 0 25 -4 25 -10z
m-210 -31 c0 -11 -49 -23 -58 -14 -10 10 28 35 44 28 8 -3 14 -9 14 -14z m410
1 c0 -5 -4 -10 -9 -10 -6 0 -13 5 -16 10 -3 6 1 10 9 10 9 0 16 -4 16 -10z
m-357 -47 c-7 -2 -21 -2 -30 0 -10 3 -4 5 12 5 17 0 24 -2 18 -5z m415 -21 c2
-7 -3 -12 -12 -12 -9 0 -16 7 -16 16 0 17 22 14 28 -4z m-398 -36 c0 -18 -27
-29 -36 -14 -4 5 0 14 7 19 20 13 29 11 29 -5z m-190 -42 c0 -14 -39 0 -43 16
-5 18 -4 18 19 3 13 -8 24 -17 24 -19z m640 -39 c7 -8 19 -15 26 -15 28 0 13
-29 -22 -40 -31 -11 -37 -10 -49 7 -15 19 -19 46 -8 56 11 12 40 8 53 -8z"/>
<path d="M11094 3539 c-16 -5 -41 -20 -53 -33 l-24 -25 -46 23 c-62 31 -148
33 -201 6 -42 -21 -50 -39 -26 -59 11 -9 19 -9 33 -1 37 24 169 -57 148 -90
-9 -14 -31 -2 -43 25 -9 20 -15 22 -39 16 -17 -5 -38 -2 -55 6 -24 12 -31 12
-55 -4 -15 -9 -38 -28 -49 -41 -20 -23 -22 -23 -32 -7 -12 23 -32 11 -25 -15
3 -10 -4 -32 -16 -49 -12 -16 -21 -34 -21 -39 0 -5 -12 -17 -26 -27 -32 -21
-54 -72 -54 -124 0 -48 16 -61 32 -27 l11 26 19 -30 c22 -37 23 -44 2 -36 -14
5 -15 4 -5 -8 7 -8 19 -12 27 -9 8 3 26 -5 40 -17 21 -20 35 -24 104 -24 44
-1 80 2 80 7 0 13 15 7 40 -16 31 -29 52 -25 44 9 -8 30 29 72 49 56 7 -5 56
-10 111 -10 111 0 108 2 131 -82 26 -94 52 -135 107 -169 27 -17 53 -31 58
-31 4 0 11 19 15 42 4 23 11 49 16 58 4 8 15 36 25 63 18 51 31 60 36 25 3
-23 4 -22 32 7 27 29 28 33 22 102 -3 39 -10 82 -15 95 -5 12 -19 49 -31 81
-12 31 -26 57 -31 57 -5 0 -9 15 -9 34 0 34 -20 61 -28 38 -8 -24 -49 -11 -99
33 -33 29 -57 43 -67 39 -9 -3 -22 -2 -29 4 -6 5 -37 15 -67 23 -67 16 -62 13
-54 32 3 10 32 24 65 33 60 17 72 27 43 38 -21 8 -52 6 -90 -5z m-10 -175 c9
-22 8 -24 -9 -24 -8 0 -15 9 -15 20 0 24 15 27 24 4z m-194 -43 c15 -28 14
-29 -24 -17 -27 8 -32 14 -24 23 15 19 36 16 48 -6z m-57 -28 c-7 -2 -13 -11
-13 -19 0 -9 -4 -13 -10 -9 -14 9 0 35 19 34 10 0 11 -2 4 -6z m197 -33 c0
-11 -7 -20 -15 -20 -15 0 -21 21 -8 33 12 13 23 7 23 -13z m-216 -39 c10 -10
14 -21 9 -24 -5 -3 -18 6 -30 19 -13 15 -17 24 -9 24 7 0 21 -9 30 -19z m395
-53 c9 -25 8 -28 -11 -28 -16 0 -19 5 -15 21 4 15 -1 23 -18 31 -14 6 -22 14
-20 19 9 14 55 -16 64 -43z m-406 8 c8 -19 -1 -26 -35 -26 -32 0 -37 14 -10
29 24 14 39 13 45 -3z m223 -7 c10 -17 -13 -36 -27 -22 -12 12 -4 33 11 33 5
0 12 -5 16 -11z m-172 -57 c2 -4 -4 -9 -15 -9 -10 -1 -19 2 -19 8 0 11 27 12
34 1z m386 -28 c0 -14 -3 -15 -17 -3 -10 7 -20 15 -22 16 -2 2 5 3 17 3 14 0
22 -6 22 -16z m-592 -59 c-7 -8 -38 23 -38 38 0 6 10 2 22 -10 12 -13 19 -25
16 -28z m202 5 c-21 -14 -30 -12 -30 4 0 18 22 27 35 14 6 -6 5 -12 -5 -18z
m439 -13 c6 -8 8 -16 5 -20 -10 -9 -34 4 -34 19 0 18 14 18 29 1z m66 -167
c30 0 14 -20 -26 -32 -37 -11 -43 -10 -55 7 -17 23 -18 57 -2 73 9 9 18 4 40
-18 15 -17 35 -30 43 -30z"/>
<path d="M11116 3481 c-7 -11 22 -23 35 -15 5 3 7 10 4 15 -8 12 -32 12 -39 0z"/>
<path d="M600 3470 c0 -5 5 -10 10 -10 6 0 10 5 10 10 0 6 -4 10 -10 10 -5 0
-10 -4 -10 -10z"/>
<path d="M10685 3440 c-3 -5 -2 -10 4 -10 5 0 13 5 16 10 3 6 2 10 -4 10 -5 0
-13 -4 -16 -10z"/>
<path d="M1460 3409 c0 -5 5 -7 10 -4 6 3 10 8 10 11 0 2 -4 4 -10 4 -5 0 -10
-5 -10 -11z"/>
<path d="M9516 3231 c-8 -12 21 -34 34 -26 17 11 11 35 -9 35 -11 0 -22 -4
-25 -9z"/>
<path d="M1416 2915 c-4 -20 -25 -61 -46 -91 -21 -31 -42 -69 -45 -85 -8 -37
17 -79 46 -79 13 0 25 -11 34 -34 8 -18 21 -36 30 -39 8 -4 15 -14 15 -24 -1
-17 -2 -16 -15 1 -14 19 -15 19 -15 -6 0 -14 8 -68 19 -119 10 -52 22 -116 26
-144 15 -105 88 -194 233 -284 176 -109 217 -116 282 -49 45 47 51 64 18 53
-13 -4 -59 -9 -103 -12 l-80 -5 -73 50 c-41 27 -96 70 -123 96 -44 41 -53 60
-52 104 1 6 -3 12 -7 12 -5 0 -11 14 -15 30 -4 17 -13 43 -21 59 -28 57 -55
186 -55 259 1 40 -3 80 -8 90 -5 9 -11 55 -12 102 -3 79 -2 85 19 96 36 18 36
22 -3 38 -21 9 -39 16 -40 16 -2 0 -6 -16 -9 -35z"/>
<path d="M10401 2936 c-8 -10 -7 -17 3 -26 17 -13 36 -6 36 15 0 19 -27 26
-39 11z"/>
<path d="M10545 2923 c-3 -16 -32 -55 -64 -88 -69 -71 -85 -109 -64 -148 7
-15 22 -27 32 -27 19 0 31 -18 31 -48 0 -8 9 -26 21 -38 22 -24 18 -47 -6 -38
-13 5 -14 -20 -11 -179 4 -185 4 -185 37 -254 25 -52 53 -89 123 -157 123
-120 185 -160 252 -160 46 -1 56 3 95 39 l44 40 -102 1 c-95 0 -105 3 -145 29
-24 16 -60 47 -80 69 -20 23 -55 61 -78 86 -22 25 -42 54 -44 65 -50 278 -55
357 -36 560 6 72 13 144 14 161 3 39 13 54 36 54 33 0 32 19 -2 40 -42 26 -45
25 -53 -7z"/>
<path d="M2190 2815 c0 -13 -7 -15 -37 -9 -21 3 -40 6 -43 6 -42 0 -61 -6 -84
-27 -14 -13 -26 -28 -26 -34 0 -5 -8 -12 -18 -16 -27 -8 -47 -78 -30 -107 l13
-23 3 24 c2 13 14 32 25 42 18 15 24 16 32 4 17 -21 53 -22 68 -1 12 16 16 17
35 5 16 -10 24 -11 33 -2 17 17 -24 53 -63 53 -30 0 -31 0 -13 20 26 29 69 26
100 -7 28 -31 44 -77 55 -168 9 -66 -13 -182 -56 -307 -13 -38 -20 -68 -15
-68 21 0 52 73 77 178 24 106 25 118 14 195 -7 45 -15 105 -19 132 -4 28 -13
67 -21 88 -14 38 -30 49 -30 22z"/>
<path d="M7185 2750 c-3 -5 -1 -10 4 -10 6 0 11 5 11 10 0 6 -2 10 -4 10 -3 0
-8 -4 -11 -10z"/>
<path d="M1555 2733 c-39 -20 -38 -20 -30 -32 4 -8 15 -6 35 4 38 20 80 22
110 5 25 -13 24 -14 -28 -25 -61 -14 -67 -18 -58 -41 5 -14 9 -14 22 -3 14 11
18 11 29 -4 17 -24 62 -22 70 3 6 18 12 19 63 13 55 -6 56 -6 42 12 -27 34
-55 60 -62 58 -3 -1 -12 4 -18 12 -17 21 -135 19 -175 -2z"/>
<path d="M10637 2696 c-54 -17 -34 -27 38 -20 50 5 67 3 88 -11 37 -24 34 -39
-7 -31 -41 8 -86 -8 -86 -30 0 -12 6 -15 23 -10 16 4 26 -1 35 -14 16 -26 57
-25 75 1 14 19 17 19 39 6 28 -18 78 -30 78 -20 0 5 -11 25 -25 44 -13 20 -21
39 -18 43 4 3 0 6 -9 6 -8 0 -23 9 -33 20 -10 12 -25 18 -32 16 -7 -3 -15 -1
-18 4 -8 13 -101 11 -148 -4z"/>
<path d="M11152 2660 c-23 -16 -46 -30 -51 -30 -19 0 -51 -89 -41 -113 5 -12
9 -15 9 -7 1 15 48 60 63 60 5 0 11 -7 15 -16 12 -32 73 -38 73 -8 0 18 14 18
30 -1 23 -27 57 -14 44 18 -6 17 -47 37 -74 37 -27 0 -25 14 3 29 44 23 78 11
106 -39 22 -39 25 -57 25 -131 0 -93 -24 -196 -56 -238 -10 -13 -18 -29 -18
-36 0 -7 -18 -45 -40 -85 -22 -40 -38 -75 -35 -78 11 -12 74 71 96 125 12 32
34 81 48 108 25 48 26 57 26 225 0 96 -3 184 -8 194 -7 18 -8 18 -20 2 -11
-16 -15 -16 -49 -1 -57 23 -99 19 -146 -15z"/>
<path d="M900 2650 c0 -5 5 -10 10 -10 6 0 10 5 10 10 0 6 -4 10 -10 10 -5 0
-10 -4 -10 -10z"/>
<path d="M3940 2630 c0 -5 5 -10 11 -10 5 0 7 5 4 10 -3 6 -8 10 -11 10 -2 0
-4 -4 -4 -10z"/>
<path d="M1985 2434 c-36 -40 -67 -49 -98 -30 -22 14 -81 11 -72 -4 3 -4 21
-11 41 -14 27 -6 34 -11 30 -23 -5 -13 0 -15 34 -10 70 9 113 49 101 93 -6 20
-7 20 -36 -12z"/>
<path d="M11071 2434 c0 -11 3 -14 6 -6 3 7 2 16 -1 19 -3 4 -6 -2 -5 -13z"/>
<path d="M11070 2388 c0 -7 5 -20 10 -28 8 -12 10 -9 10 13 0 15 -4 27 -10 27
-5 0 -10 -6 -10 -12z"/>
<path d="M2070 2327 c-18 -18 -170 -47 -245 -47 -68 0 -85 -3 -85 -15 0 -8 12
-18 28 -21 15 -4 55 -20 89 -35 68 -30 119 -30 156 0 28 24 69 90 65 108 -2 8
-5 12 -8 10z m-102 -89 c-7 -19 -51 -32 -83 -24 -35 9 -22 23 25 29 19 2 41 5
48 5 8 1 12 -4 10 -10z"/>
<path d="M11065 2318 c-11 -7 -26 -18 -33 -25 -19 -18 -62 -16 -84 4 -19 17
-78 28 -78 14 0 -3 16 -15 35 -26 20 -10 34 -24 31 -31 -6 -16 16 -24 63 -24
46 0 101 42 101 76 0 27 -6 29 -35 12z"/>
<path d="M10382 2293 c2 -10 10 -18 18 -18 8 0 16 8 18 18 2 12 -3 17 -18 17
-15 0 -20 -5 -18 -17z"/>
<path d="M10770 2172 c0 -8 80 -60 121 -80 4 -2 9 7 12 18 4 16 11 20 31 15
14 -3 37 -7 51 -10 14 -3 25 -9 25 -14 0 -13 -39 -21 -71 -14 -34 7 -39 -11
-8 -28 45 -23 135 7 178 61 37 46 39 62 9 55 -42 -9 -192 -10 -270 -1 -53 6
-78 5 -78 -2z"/>
<path d="M6030 1970 c0 -5 5 -10 10 -10 6 0 10 5 10 10 0 6 -4 10 -10 10 -5 0
-10 -4 -10 -10z"/>
<path d="M2138 1914 c-12 -11 4 -34 24 -34 13 0 18 6 16 17 -3 18 -29 29 -40
17z"/>
<path d="M4620 1230 c0 -5 5 -10 11 -10 5 0 7 5 4 10 -3 6 -8 10 -11 10 -2 0
-4 -4 -4 -10z"/>
<path d="M2395 510 c-8 -13 3 -30 20 -30 14 0 27 24 18 34 -10 9 -31 7 -38 -4z"/>
<path d="M11635 280 c-8 -14 3 -30 21 -30 8 0 14 9 14 20 0 21 -24 28 -35 10z"/>
<path d="M1515 210 c-4 -7 -3 -16 3 -22 14 -14 45 -2 40 15 -6 16 -34 21 -43
7z"/>
<path d="M4325 100 c3 -5 8 -10 11 -10 2 0 4 5 4 10 0 6 -5 10 -11 10 -5 0 -7
-4 -4 -10z"/>
<path d="M6660 21 c0 -15 6 -21 21 -21 25 0 22 33 -4 38 -12 2 -17 -3 -17 -17z"/>
</g>
</svg>
