<svg xmlns="http://www.w3.org/2000/svg" width="148" height="72.11" viewBox="0 0 148 72.11">
  <g id="Lower" transform="translate(148 72) rotate(180)" fill="#34364f">
    <path d="M 141.9214935302734 71.5 L 5.972299098968506 71.5 C 5.917205333709717 70.94712829589844 5.75342845916748 70.04540252685547 5.26830005645752 69.32742309570312 C 4.542479991912842 68.25321960449219 3.875499963760376 67.79910278320312 3.287019968032837 67.3984375 C 2.346649408340454 66.75818634033203 1.168290853500366 66.57324981689453 0.5 66.520751953125 L 0.5 8.000000953674316 C 0.5 5.893020629882812 1.111879944801331 3.97614049911499 2.222939968109131 2.602480411529541 C 3.393739938735962 1.154940485954285 5.039420127868652 0.3898005187511444 6.982059955596924 0.3898005187511444 L 139.9995727539062 0.500000536441803 C 144.1355133056641 0.500000536441803 147.5 3.864480495452881 147.5 8.000000953674316 L 147.5 66.04019165039062 C 146.9222564697266 66.10593414306641 145.9389495849609 66.28150177001953 145.1514434814453 66.74552154541016 C 144.0891265869141 67.37149810791016 143.3390197753906 68.00405883789062 142.6486053466797 69.38501739501953 C 142.2339324951172 70.21441650390625 142.0213317871094 71.02197265625 141.9214935302734 71.5 Z" stroke="none"/>
    <path d="M 6.981246948242188 0.889801025390625 L 6.981643676757812 0.889801025390625 C 5.195281982421875 0.8898849487304688 3.684234619140625 1.590843200683594 2.611679077148438 2.916923522949219 C 1.572372436523438 4.201881408691406 1 6.007080078125 1 8 L 1 66.07305908203125 C 1.73291015625 66.17439270019531 2.731491088867188 66.41532897949219 3.56842041015625 66.98513793945312 C 4.163055419921875 67.39002227783203 4.903121948242188 67.89389801025391 5.682586669921875 69.04750061035156 C 6.109237670898438 69.67893218994141 6.313674926757812 70.41665649414062 6.411376953125 71 L 141.5251312255859 71 C 141.6531677246094 70.49798583984375 141.8644409179688 69.83535003662109 142.2013854980469 69.16143798828125 C 142.9438171386719 67.67643737792969 143.7834777832031 66.97123718261719 144.8975982666016 66.31475830078125 C 145.5848999023438 65.90974426269531 146.3857727050781 65.70616149902344 147 65.60396575927734 L 147 8 C 147 4.140182495117188 143.8598175048828 1 139.9991760253906 1 L 6.981246948242188 0.889801025390625 M 6.9820556640625 -0.110198974609375 L 140 0 C 144.4182739257812 0 148 3.581718444824219 148 8 L 148 66.50145721435547 C 148 66.50145721435547 146.4758148193359 66.54546356201172 145.4052734375 67.17630004882812 C 144.334716796875 67.80712127685547 143.703125 68.3939208984375 143.0958251953125 69.60861968994141 C 142.488525390625 70.82330322265625 142.3404541015625 72 142.3404541015625 72 L 5.5 72 C 5.5 72 5.51416015625 70.58438110351562 4.85400390625 69.60736083984375 C 4.193832397460938 68.63034057617188 3.59759521484375 68.21479797363281 3.005615234375 67.81173706054688 C 1.764495849609375 66.96672058105469 1.52587890625e-05 67.00060272216797 0 67.00060272216797 L 0 8 C 0 3.581718444824219 2.56378173828125 -0.110198974609375 6.9820556640625 -0.110198974609375 Z" stroke="none" fill="#000"/>
  </g>
</svg>
