<svg xmlns="http://www.w3.org/2000/svg" width="148" height="72.11" viewBox="0 0 148 72.11">
  <g id="Upper" transform="translate(0 0.11)" fill="#2c2c44">
    <path d="M 142.0459289550781 71.5 L 6.096285820007324 71.5 C 5.992447376251221 70.96456909179688 5.756272792816162 70.04962921142578 5.26830005645752 69.32742309570312 C 4.542479991912842 68.25321960449219 3.875499963760376 67.79910278320312 3.287019968032837 67.3984375 C 2.346649408340454 66.75818634033203 1.168290853500366 66.57324981689453 0.5 66.520751953125 L 0.5 8.000000953674316 C 0.5 5.911340713500977 1.140220046043396 3.996820449829102 2.302720069885254 2.609120607376099 C 3.519000053405762 1.157240509986877 5.196060180664062 0.3898005187511444 7.152599811553955 0.3898005187511444 L 139.9995727539062 0.500000536441803 C 144.1355133056641 0.500000536441803 147.5 3.864480495452881 147.5 8.000000953674316 L 147.5 66.04019165039062 C 146.9222564697266 66.10593414306641 145.9389495849609 66.28150177001953 145.1514434814453 66.74552154541016 C 144.0891265869141 67.37149810791016 143.3390197753906 68.00405883789062 142.6486053466797 69.38501739501953 C 142.2399444580078 70.20240020751953 142.0960235595703 71.00123596191406 142.0459289550781 71.5 Z" stroke="none"/>
    <path d="M 7.151763916015625 0.889801025390625 L 7.15216064453125 0.889801025390625 C 5.348480224609375 0.8898849487304688 3.804168701171875 1.595443725585938 2.686004638671875 2.930221557617188 C 1.5987548828125 4.228057861328125 1 6.028541564941406 1 8 L 1 66.07305908203125 C 1.73291015625 66.17439270019531 2.731491088867188 66.41532897949219 3.56842041015625 66.98513793945312 C 4.163055419921875 67.39002227783203 4.903121948242188 67.89389801025391 5.682586669921875 69.04750061035156 C 6.1104736328125 69.68076324462891 6.35931396484375 70.42827606201172 6.499618530273438 71 L 141.6077270507812 71 C 141.6946411132812 70.48582458496094 141.8658599853516 69.83251190185547 142.2013854980469 69.16143798828125 C 142.9438171386719 67.67643737792969 143.7834777832031 66.97123718261719 144.8975982666016 66.31475830078125 C 145.5848999023438 65.90974426269531 146.3857727050781 65.70616149902344 147 65.60396575927734 L 147 8 C 147 4.140182495117188 143.8598175048828 1 139.9991760253906 1 L 7.151763916015625 0.889801025390625 M 7.152572631835938 -0.110198974609375 L 140 0 C 144.4182739257812 0 148 3.581718444824219 148 8 L 148 66.50145721435547 C 148 66.50145721435547 146.4758148193359 66.54546356201172 145.4052734375 67.17630004882812 C 144.334716796875 67.80712127685547 143.703125 68.3939208984375 143.0958251953125 69.60861968994141 C 142.488525390625 70.82330322265625 142.52001953125 72 142.52001953125 72 L 5.670516967773438 72 C 5.670516967773438 72 5.51416015625 70.58438110351562 4.85400390625 69.60736083984375 C 4.193832397460938 68.63034057617188 3.59759521484375 68.21479797363281 3.005615234375 67.81173706054688 C 1.764495849609375 66.96672058105469 1.52587890625e-05 67.00060272216797 0 67.00060272216797 L 0 8 C 0 3.581718444824219 2.73431396484375 -0.110198974609375 7.152572631835938 -0.110198974609375 Z" stroke="none" fill="#000"/>
  </g>
</svg>
